M48
;DRILL file {KiCad 4.0.7-e2-6376~58~ubuntu16.04.1} date Wed Jan 17 09:19:05 2018
;FORMAT={-:-/ absolute / inch / decimal}
FMAT,2
INCH,TZ
T1C0.040
T2C0.120
%
G90
G05
M72
T1
X2.4Y-2.35
X2.4Y-2.45
X2.4Y-2.55
X2.4Y-2.65
X2.4Y-2.75
X2.4Y-2.85
X2.4Y-2.95
X2.4Y-3.05
X2.4Y-3.15
X2.4Y-3.25
X2.4Y-3.35
X2.4Y-3.45
X2.4Y-3.55
X2.4Y-3.65
X2.5Y-3.65
X2.6Y-3.65
X2.7Y-2.95
X2.7Y-3.05
X2.7Y-3.15
X2.7Y-3.25
X2.7Y-3.35
X2.7Y-3.45
X2.7Y-3.55
X2.7Y-3.65
X2.8Y-2.95
X2.8Y-3.05
X2.8Y-3.15
X2.8Y-3.25
X2.8Y-3.35
X2.8Y-3.45
X2.8Y-3.55
X2.8Y-3.65
X2.9Y-2.45
X2.9Y-2.65
X2.9Y-2.75
X2.9Y-2.85
X2.9Y-3.65
X3.Y-2.35
X3.Y-2.45
X3.Y-2.55
X3.Y-2.65
X3.Y-2.75
X3.Y-2.85
X3.Y-2.95
X3.Y-3.05
X3.Y-3.15
X3.Y-3.25
X3.Y-3.35
X3.Y-3.45
X3.Y-3.55
X3.Y-3.65
X3.5375Y-2.3625
X3.5375Y-2.4625
X3.5375Y-2.5625
X3.5375Y-2.7125
X3.5375Y-2.8125
X3.5375Y-2.9125
X3.5375Y-3.0625
X3.5375Y-3.1625
X3.5375Y-3.2625
X3.5375Y-3.4125
X3.5375Y-3.5125
X3.5375Y-3.6125
T2
X2.125Y-2.125
X2.125Y-3.825
X3.575Y-2.125
X3.575Y-3.825
T0
M30
