G04 #@! TF.FileFunction,Soldermask,Top*
%FSLAX46Y46*%
G04 Gerber Fmt 4.6, Leading zero omitted, Abs format (unit mm)*
G04 Created by KiCad (PCBNEW 4.0.7-e2-6376~58~ubuntu16.04.1) date Fri Jan 12 16:09:03 2018*
%MOMM*%
%LPD*%
G01*
G04 APERTURE LIST*
%ADD10C,0.100000*%
%ADD11R,2.051000X2.051000*%
%ADD12C,2.051000*%
%ADD13C,1.924000*%
%ADD14C,3.702000*%
G04 APERTURE END LIST*
D10*
D11*
X89852500Y-91757500D03*
D12*
X89852500Y-89217500D03*
X89852500Y-86677500D03*
D11*
X89852500Y-82867500D03*
D12*
X89852500Y-80327500D03*
X89852500Y-77787500D03*
D11*
X89852500Y-73977500D03*
D12*
X89852500Y-71437500D03*
X89852500Y-68897500D03*
D11*
X89852500Y-65087500D03*
D12*
X89852500Y-62547500D03*
X89852500Y-60007500D03*
D13*
X60960000Y-59690000D03*
X60960000Y-62230000D03*
X60960000Y-64770000D03*
X60960000Y-67310000D03*
X60960000Y-69850000D03*
X60960000Y-72390000D03*
X60960000Y-74930000D03*
X60960000Y-77470000D03*
X60960000Y-80010000D03*
X60960000Y-82550000D03*
X60960000Y-85090000D03*
X60960000Y-87630000D03*
X60960000Y-90170000D03*
X60960000Y-92710000D03*
X63500000Y-92710000D03*
X66040000Y-92710000D03*
X68580000Y-92710000D03*
X71120000Y-92710000D03*
X73660000Y-92710000D03*
X76200000Y-92710000D03*
X76200000Y-90170000D03*
X76200000Y-87630000D03*
X76200000Y-85090000D03*
X76200000Y-82550000D03*
X76200000Y-80010000D03*
X76200000Y-77470000D03*
X76200000Y-74930000D03*
X76200000Y-72390000D03*
X76200000Y-69850000D03*
X76200000Y-67310000D03*
X76200000Y-64770000D03*
X76200000Y-62230000D03*
X76200000Y-59690000D03*
X68580000Y-74930000D03*
X68580000Y-77470000D03*
X68580000Y-80010000D03*
X68580000Y-82550000D03*
X68580000Y-85090000D03*
X68580000Y-87630000D03*
X68580000Y-90170000D03*
X71120000Y-90170000D03*
X71120000Y-87630000D03*
X71120000Y-85090000D03*
X71120000Y-82550000D03*
X71120000Y-80010000D03*
X71120000Y-77470000D03*
X71120000Y-74930000D03*
X73660000Y-72390000D03*
X73660000Y-69850000D03*
X73660000Y-67310000D03*
X73660000Y-62230000D03*
D14*
X53975000Y-53975000D03*
X90805000Y-53975000D03*
X90805000Y-98425000D03*
X53975000Y-98425000D03*
M02*
